Coordinates
version=1
nRows=13
nColumns=40
inDegrees=yes

Units are S.I. units (second, meters, Newtons, ...)
Angles are in degrees.

endheader
time	pelvis_tilt	pelvis_list	pelvis_rotation	pelvis_tx	pelvis_ty	pelvis_tz	hip_flexion_r	hip_adduction_r	hip_rotation_r	knee_angle_r	knee_angle_r_beta	ankle_angle_r	subtalar_angle_r	mtp_angle_r	hip_flexion_l	hip_adduction_l	hip_rotation_l	knee_angle_l	knee_angle_l_beta	ankle_angle_l	subtalar_angle_l	mtp_angle_l	lumbar_extension	lumbar_bending	lumbar_rotation	arm_flex_r	arm_add_r	arm_rot_r	elbow_flex_r	pro_sup_r	wrist_flex_r	wrist_dev_r	arm_flex_l	arm_add_l	arm_rot_l	elbow_flex_l	pro_sup_l	wrist_flex_l	wrist_dev_l
     31.98750000	     -2.66469642	     -4.72569060	     -0.67730115	      1.14785623	      0.92640313	      0.48019423	     18.14277212	      1.10283346	    -10.87333115	     20.56304507	     20.56304507	      7.07201720	     -1.00236041	     -4.53488524	     10.62981323	    -12.59632501	     -6.80063182	     42.08362382	     42.08362382	     12.53964452	    -17.50171284	     -2.45954878	    -10.92944036	      7.74759061	      1.64779267	      4.22700053	    -15.08744606	     -3.22225205	     36.35520046	     45.95536286	      0.00000000	      0.00000000	      9.68416761	    -12.71089556	     -7.30215389	     63.28777227	     47.21881500	      0.00000000	      0.00000000
     32.00142857	     -2.69751384	     -4.72050185	     -0.38474823	      1.14769384	      0.92674656	      0.48256863	     17.66950147	      1.15920292	    -11.40005794	     20.38660190	     20.38660190	      7.45724801	     -0.51879386	     -4.83360611	     12.92782261	    -12.92684311	     -5.59950336	     46.22403364	     46.22403364	     11.91184253	    -17.91860601	      0.31759440	    -10.86022069	      7.87410795	      1.91851422	      5.07788617	    -15.66659812	     -2.46946697	     38.51137495	     45.82554751	      0.00000000	      0.00000000	      9.78099431	    -11.90866189	     -7.35123830	     58.96935785	     47.16133381	      0.00000000	      0.00000000
     32.01535714	     -2.57760699	     -4.89112245	     -0.11729379	      1.14736586	      0.92713096	      0.48505781	     17.04477292	      1.46833040	    -11.75535186	     20.21014262	     20.21014262	      7.78866611	     -0.36554729	     -4.93991442	     14.97794730	    -13.50209829	     -4.62099681	     49.91929375	     49.91929375	     10.45350642	    -18.26306337	      0.73808972	    -11.10848104	      8.05520923	      2.10077871	      6.62870764	    -16.01710400	     -2.52323615	     39.43121551	     45.80278363	      0.00000000	      0.00000000	      8.76859587	    -11.49101251	     -7.06387633	     57.90629391	     47.11468207	      0.00000000	      0.00000000
     32.02928571	     -2.59001865	     -4.86869026	      0.16194959	      1.14680628	      0.92741119	      0.48717632	     16.57774155	      1.52672498	    -12.14488744	     20.03748465	     20.03748465	      8.06521396	     -0.06331718	     -5.23648885	     17.31709466	    -13.58171250	     -3.33787011	     53.61134736	     53.61134736	     10.94017836	    -18.10874269	      6.21114692	    -11.13439597	      8.07484095	      2.44453079	      7.34574445	    -16.80709573	     -1.38798792	     42.35320388	     45.63044741	      0.00000000	      0.00000000	      8.73846040	    -10.99567112	     -6.42317759	     54.15277356	     46.99934191	      0.00000000	      0.00000000
     32.04321429	     -2.56746484	     -4.97403234	      0.45125688	      1.14612661	      0.92767020	      0.48935362	     16.05924631	      1.75676784	    -12.48612984	     19.81527294	     19.81527294	      8.35298947	      0.08177280	     -5.32142600	     19.36829707	    -13.90617542	     -2.39176610	     56.41138532	     56.41138532	      9.72719134	    -18.24936085	      6.59419442	    -11.24622853	      8.16181346	      2.44249371	      9.01999655	    -17.03908818	     -1.45535814	     43.34298365	     45.60718249	      0.00000000	      0.00000000	      7.67168316	    -10.72098308	     -6.17012890	     52.78281157	     46.95003711	      0.00000000	      0.00000000
     32.05714286	     -2.54957015	     -4.95079259	      0.73186545	      1.14529062	      0.92803435	      0.49134495	     15.55531441	      1.84906309	    -12.76605305	     19.58310589	     19.58310589	      8.60443273	      0.26400154	     -5.45216426	     21.32015095	    -14.00869684	     -1.55703229	     58.67213986	     58.67213986	      9.12766455	    -18.24532021	      7.92403746	    -11.33655965	      8.09547552	      2.21629083	     10.77949479	    -17.23129971	     -1.17124646	     44.93659159	     45.54459812	      0.00000000	      0.00000000	      6.94555489	    -10.51831202	     -5.86562464	     50.05371398	     46.88219589	      0.00000000	      0.00000000
     32.07107143	     -2.53382366	     -4.95655021	      1.01066438	      1.14439233	      0.92843453	      0.49320369	     15.03081424	      1.98543914	    -13.00091195	     19.28778436	     19.28778436	      8.82526209	      0.34802213	     -5.55663090	     23.17755445	    -14.11686142	     -0.83811811	     60.34647774	     60.34647774	      8.81746576	    -18.17561509	      9.23870087	    -11.42924287	      8.06169829	      2.35742919	     12.26366704	    -17.64524565	     -0.76683269	     46.58379761	     45.47433214	      0.00000000	      0.00000000	      6.42522066	    -10.15226823	     -5.56095433	     47.36840901	     46.81576409	      0.00000000	      0.00000000
     32.08500000	     -2.52595077	     -4.95510239	      1.30133359	      1.14340312	      0.92890076	      0.49496711	     14.51105289	      2.12309202	    -13.19991934	     18.96804062	     18.96804062	      9.01089831	      0.37961824	     -5.64115027	     24.90306714	    -14.21847617	     -0.28289469	     61.33282961	     61.33282961	      8.60640160	    -18.13879943	     10.02717116	    -11.56368704	      7.98566686	      2.53569345	     13.74061339	    -18.04262964	     -0.47304030	     48.20872713	     45.41190423	      0.00000000	      0.00000000	      5.80099630	     -9.81429223	     -5.28242884	     45.03684032	     46.75607597	      0.00000000	      0.00000000
     32.09892857	     -2.54606191	     -4.90882578	      1.59172276	      1.14237322	      0.92942647	      0.49654528	     13.99490480	      2.21456279	    -13.37271643	     18.57029630	     18.57029630	      9.11853066	      0.36783707	     -5.85038964	     26.51511837	    -14.26006956	      0.10130777	     61.66483274	     61.66483274	      8.70942454	    -18.07527506	     11.04628506	    -11.59510552	      7.85984619	      3.06081079	     14.68613233	    -18.83397366	      0.21761057	     50.54116242	     45.31072332	      0.00000000	      0.00000000	      5.84346574	     -9.31462608	     -4.94506796	     41.51529247	     46.68118817	      0.00000000	      0.00000000
     32.11285714	     -2.56331161	     -4.86414224	      1.92221326	      1.14134453	      0.93003252	      0.49801564	     13.42308695	      2.32387469	    -13.53034706	     18.07722080	     18.07722080	      9.27031527	      0.36055425	     -5.82093503	     27.94117688	    -14.32227367	      0.31116689	     61.23897792	     61.23897792	      8.63846336	    -18.10965320	     11.11013014	    -11.67311920	      7.71706742	      2.84984929	     16.46366645	    -18.80728223	      0.03147444	     51.93519475	     45.28068199	      0.00000000	      0.00000000	      4.66414544	     -9.22964369	     -4.77036297	     40.18793526	     46.63629739	      0.00000000	      0.00000000
     32.12678571	     -2.56859721	     -4.76573235	      2.25625405	      1.14031357	      0.93074637	      0.49931245	     12.81489389	      2.37684844	    -13.67210064	     17.53659804	     17.53659804	      9.37800806	      0.33879025	     -5.81888735	     29.14307807	    -14.31621160	      0.33119023	     60.09828998	     60.09828998	      8.69293506	    -18.21342303	     11.22244490	    -11.76446528	      7.51208914	      2.63862801	     18.16427834	    -18.77897842	     -0.04173218	     53.50293719	     45.23953393	      0.00000000	      0.00000000	      3.65169178	     -9.13795948	     -4.59797674	     38.53207529	     46.59176261	      0.00000000	      0.00000000
     32.14071429	     -2.60081329	     -4.66842890	      2.59452384	      1.13924529	      0.93136610	      0.50041973	     12.23340765	      2.42461328	    -13.79916928	     16.97187629	     16.97187629	      9.34457399	      0.23751105	     -6.24137819	     30.20667616	    -14.30127199	      0.19929110	     58.35232420	     58.35232420	      8.79585077	    -18.31581580	     11.24151398	    -11.81835584	      7.33367213	      3.11164762	     19.01059465	    -19.50628279	      0.26593054	     56.24775460	     45.15068755	      0.00000000	      0.00000000	      3.74923727	     -8.71063384	     -4.41519997	     34.99151367	     46.54014136	      0.00000000	      0.00000000
     32.15464286	     -2.65629318	     -4.53710430	      2.93475656	      1.13815638	      0.93195991	      0.50137051	     11.68467866	      2.42581457	    -13.92412372	     16.43500173	     16.43500173	      9.46171456	      0.19214739	     -6.19572908	     31.07832227	    -14.20105839	     -0.05532330	     55.99653796	     55.99653796	      8.98762698	    -18.43792421	     11.49405412	    -11.86574562	      7.07380089	      3.01496042	     20.63664713	    -19.47663267	     -0.01003612	     57.54110865	     45.12727285	      0.00000000	      0.00000000	      2.65331626	     -8.63160879	     -4.33011304	     34.08008253	     46.50829268	      0.00000000	      0.00000000
